<svg width="50" height="33" viewBox="0 0 50 33" fill="none" xmlns="http://www.w3.org/2000/svg">
<path fill-rule="evenodd" clip-rule="evenodd" d="M25.4101 0.00222895C25.6322 -0.00860743 25.8543 0.0248491 26.0632 0.100626C26.2721 0.176402 26.4636 0.292965 26.6264 0.44344C26.7893 0.593915 26.9201 0.775256 27.0113 0.97677C27.1024 1.17828 27.1521 1.39589 27.1572 1.61676V26.7389C27.1418 27.4587 26.9812 28.1681 26.685 28.8253C26.3888 29.4824 25.9629 30.0738 25.4325 30.5645C24.9022 31.0552 24.2782 31.4353 23.5974 31.6823C22.9166 31.9292 22.1929 32.038 21.469 32.0022C20.0136 32.0481 18.599 31.5205 17.5335 30.5346C16.4679 29.5487 15.8379 28.1843 15.7808 26.7389H15.8214C15.809 26.637 15.809 26.534 15.8214 26.4321V5.31403C15.7919 4.75079 15.5397 4.22189 15.1197 3.84243C14.6997 3.46296 14.1458 3.26363 13.5786 3.2878C13.0183 3.27442 12.4748 3.4786 12.0636 3.85695C11.6524 4.2353 11.4059 4.75801 11.3765 5.31403V30.4281C11.3765 30.8563 11.2052 31.2669 10.9004 31.5697C10.5957 31.8725 10.1823 32.0426 9.75124 32.0426H9.58872C9.15769 32.0426 8.74431 31.8725 8.43953 31.5697C8.13474 31.2669 7.96352 30.8563 7.96352 30.4281V5.31403C7.95006 5.0319 7.88028 4.75523 7.75823 4.50012C7.63619 4.24501 7.46432 4.01654 7.2526 3.82801C7.04089 3.63947 6.79357 3.49462 6.52501 3.40188C6.25645 3.30914 5.97201 3.27036 5.68823 3.2878C5.12239 3.26581 4.5706 3.46612 4.15235 3.84536C3.7341 4.2246 3.48305 4.75224 3.45357 5.31403V30.4281C3.45357 30.8563 3.28234 31.2669 2.97755 31.5697C2.67277 31.8725 2.25939 32.0426 1.82836 32.0426C1.60189 32.0602 1.37419 32.0318 1.15912 31.9592C0.944046 31.8866 0.746099 31.7713 0.577331 31.6202C0.408563 31.4692 0.272506 31.2856 0.177443 31.0806C0.0823807 30.8757 0.0303021 30.6536 0.0243781 30.4281H0V5.31403C0.0488171 3.8615 0.674626 2.48727 1.74057 1.49187C2.80652 0.496458 4.22587 -0.0391288 5.68823 0.00222895C7.14424 -0.00187613 8.54948 0.5335 9.62935 1.50374C10.7113 0.531622 12.1198 -0.00388905 13.5786 0.00222895C15.041 -0.0391288 16.4603 0.496458 17.5263 1.49187C18.5922 2.48727 19.218 3.8615 19.2668 5.31403V26.4321C19.2752 26.5342 19.2752 26.6368 19.2668 26.7389C19.3247 27.2887 19.5855 27.7977 19.9989 28.1678C20.4123 28.5378 20.9491 28.7426 21.5056 28.7426C22.062 28.7426 22.5988 28.5378 23.0122 28.1678C23.4256 27.7977 23.6864 27.2887 23.7443 26.7389V1.61676C23.7442 1.4013 23.7876 1.188 23.8718 0.989438C23.956 0.790876 24.0793 0.611066 24.2346 0.460603C24.3898 0.31014 24.5738 0.192069 24.7757 0.113346C24.9776 0.0346236 25.1933 -0.00315763 25.4101 0.00222895ZM34.625 0.00222895C37.3148 0.00222895 39.5007 2.42402 39.5007 5.31403V6.1213C39.5007 6.5495 39.3294 6.96016 39.0247 7.26294C38.7199 7.56573 38.3065 7.73583 37.8755 7.73583C37.4444 7.73583 37.031 7.56573 36.7263 7.26294C36.4215 6.96016 36.2502 6.5495 36.2502 6.1213V5.31403C36.2924 4.83373 36.1472 4.35569 35.8448 3.97862C35.5424 3.60156 35.1057 3.35426 34.625 3.2878C34.1444 3.35426 33.7077 3.60156 33.4053 3.97862C33.1028 4.35569 32.9577 4.83373 32.9998 5.31403V8.81757C32.9725 9.03406 33.0122 9.2537 33.1136 9.44723L38.9562 20.9911C39.1293 21.3095 39.2682 21.645 39.3706 21.9921C39.4986 22.4543 39.5426 22.9354 39.5007 23.4129V26.7469C39.5535 28.0864 39.0702 29.3921 38.1565 30.3785C37.2428 31.3648 35.9731 31.9516 34.625 32.0103C33.277 31.9516 32.0073 31.3648 31.0935 30.3785C30.1798 29.3921 29.6966 28.0864 29.7494 26.7469V25.9397C29.7494 25.5115 29.9206 25.1008 30.2254 24.798C30.5302 24.4952 30.9436 24.3251 31.3746 24.3251C31.8057 24.3251 32.219 24.4952 32.5238 24.798C32.8286 25.1008 32.9998 25.5115 32.9998 25.9397V26.7469C32.9577 27.2272 33.1028 27.7053 33.4053 28.0823C33.7077 28.4594 34.1444 28.7067 34.625 28.7732C35.1057 28.7067 35.5424 28.4594 35.8448 28.0823C36.1472 27.7053 36.2924 27.2272 36.2502 26.7469V23.4129C36.2502 22.8963 36.2502 22.8963 36.1609 22.7025L30.3345 11.1667C30.1032 10.7613 29.936 10.3229 29.8388 9.86701C29.7645 9.48145 29.7345 9.08876 29.7494 8.69648V5.31403C29.7494 2.42402 31.9353 0.00222895 34.625 0.00222895ZM47.4317 0.00222895C47.8528 0.0168794 48.2517 0.193427 48.5443 0.494637C48.8369 0.795847 49.0003 1.19817 49 1.61676C49.0132 2.04366 48.8555 2.45834 48.5616 2.77002C48.2676 3.0817 47.8613 3.26498 47.4317 3.27973H44.9939V14.3635H47.4317C47.6387 14.3645 47.8435 14.4061 48.0343 14.4858C48.2252 14.5655 48.3984 14.6817 48.544 14.8279C48.6897 14.9741 48.8049 15.1473 48.8831 15.3377C48.9613 15.5281 49.0011 15.732 49 15.9376C49.0131 16.153 48.9827 16.3688 48.9105 16.5723C48.8383 16.7757 48.7258 16.9628 48.5796 17.1223C48.4334 17.2818 48.2565 17.4106 48.0593 17.5011C47.8621 17.5916 47.6487 17.6419 47.4317 17.649H44.9939V28.7651H47.4317C47.8627 28.7651 48.2761 28.9352 48.5809 29.238C48.8857 29.5408 49.0569 29.9514 49.0569 30.3796C49.0569 30.8078 48.8857 31.2185 48.5809 31.5213C48.2761 31.824 47.8627 31.9942 47.4317 31.9942H43.3687C42.9376 31.9942 42.5243 31.824 42.2195 31.5213C41.9147 31.2185 41.7435 30.8078 41.7435 30.3796V1.6652C41.7369 1.44913 41.7741 1.23397 41.8529 1.03246C41.9316 0.830947 42.0503 0.647199 42.2019 0.492108C42.3534 0.337017 42.5348 0.213742 42.7352 0.129592C42.9357 0.0454421 43.1511 0.00213165 43.3687 0.00222895H47.4317Z" fill="black"/>
</svg>
