<svg width="10" height="8" viewBox="0 0 10 8" fill="none" xmlns="http://www.w3.org/2000/svg">
<path d="M9.99922 5.6709C9.95522 5.72728 9.91981 5.7913 9.86565 5.8384C9.07986 6.52385 8.29172 7.20738 7.50124 7.88897C7.43891 7.94278 7.36087 7.97991 7.27601 7.99615C7.09532 8.02491 6.93493 7.88873 6.93311 7.71776C6.92999 7.45097 6.93311 7.18418 6.93311 6.91739V6.8065H6.81647C5.951 6.8065 5.08545 6.8065 4.2198 6.8065C3.95475 6.8065 3.84175 6.70535 3.84175 6.4671C3.84175 5.893 3.84175 5.31882 3.84175 4.74456C3.84175 4.50399 3.95683 4.40307 4.22996 4.40307H6.93207V4.0233C6.93207 3.85511 6.93389 3.68691 6.93207 3.51872C6.93025 3.38625 6.98831 3.28673 7.12735 3.23523C7.26638 3.18373 7.39162 3.22131 7.49967 3.3155C8.14678 3.87893 8.79449 4.44158 9.44281 5.00346C9.5782 5.12085 9.7162 5.23545 9.84768 5.35632C9.90231 5.41212 9.95317 5.47077 10 5.53194L9.99922 5.6709Z" fill="#404040"/>
<path d="M0.00104249 2.33C0.0593652 2.2618 0.109096 2.18594 0.177052 2.12655C0.948786 1.453 1.72209 0.780848 2.49694 0.110085C2.57505 0.0423433 2.65915 -0.00591015 2.77215 0.000585599C2.85286 0.00453612 2.92872 0.0362072 2.98378 0.0889415C3.03883 0.141676 3.06881 0.211368 3.06741 0.283381C3.07001 0.552955 3.06741 0.822531 3.06741 1.09234V1.19464H5.77057C6.04916 1.19464 6.15851 1.29277 6.15851 1.54263C6.15851 2.11379 6.15851 2.68503 6.15851 3.25635C6.15851 3.49646 6.04239 3.59853 5.77083 3.59876H3.06845V3.69945C3.06845 3.96044 3.06689 4.22143 3.06845 4.48218C3.06845 4.61488 3.01195 4.71418 2.87318 4.76591C2.73935 4.81532 2.61906 4.78725 2.51543 4.69631C1.71158 3.99802 0.90782 3.29965 0.104148 2.6012C0.0617075 2.56408 0.0346291 2.51281 0 2.46804L0.00104249 2.33Z" fill="#404040"/>
</svg>
