<svg width="13" height="17" viewBox="0 0 13 17" fill="none" xmlns="http://www.w3.org/2000/svg">
<path d="M3.22638 3.82156C3.15274 2.62116 3.49364 1.60232 4.37062 0.815765C4.95812 0.278842 5.71745 -0.0118613 6.50048 0.00037091C7.4789 0.00517676 8.30284 0.392317 8.95786 1.15111C9.61289 1.9099 9.83947 2.80646 9.77201 3.82102C10.1876 3.82102 10.579 3.81515 10.9698 3.82102C11.3693 3.82928 11.7517 3.9906 12.0434 4.27387C12.335 4.55714 12.5152 4.94231 12.5492 5.35516C12.5796 5.7487 12.594 6.14439 12.612 6.53901C12.7013 8.47843 12.7895 10.4186 12.8767 12.3594C12.9194 13.3083 12.9663 14.2572 12.9987 15.2066C13.0343 16.2239 12.3149 16.9965 11.3329 16.9976C8.11127 17.0008 4.88935 17.0008 1.66708 16.9976C0.686089 16.9976 -0.0400017 16.2206 0.00170994 15.2061C0.0846182 13.1956 0.18143 11.1863 0.272063 9.17581C0.323559 8.05445 0.369391 6.93575 0.422431 5.81599C0.426024 5.58034 0.448936 5.34542 0.49092 5.1138C0.572584 4.75168 0.768416 4.42818 1.0474 4.1945C1.32639 3.96082 1.67258 3.83033 2.03116 3.8237C2.41789 3.81622 2.8072 3.82156 3.22638 3.82156ZM6.50048 15.8645C8.09994 15.8645 9.69957 15.8645 11.2994 15.8645C11.7031 15.8645 11.9173 15.6285 11.9055 15.2104C11.8988 15.0272 11.8931 14.8446 11.8849 14.6614C11.7984 12.7462 11.7112 10.8305 11.6233 8.91416C11.5718 7.78853 11.5244 6.66236 11.4688 5.53672C11.4482 5.12822 11.2299 4.92958 10.8406 4.93118C9.98675 4.93509 9.13295 4.93847 8.27915 4.94132C6.23511 4.94702 4.19141 4.95236 2.14806 4.95734C1.76493 4.95734 1.55791 5.15331 1.53371 5.5554C1.50642 6.01463 1.49251 6.47492 1.4714 6.93468C1.34712 9.68149 1.22268 12.4285 1.09806 15.1757C1.07694 15.6418 1.2855 15.865 1.7366 15.865L6.50048 15.8645ZM8.67773 3.81355C8.75651 2.78083 8.44909 1.94461 7.5716 1.43038C6.76517 0.957805 5.9469 1.01708 5.19867 1.58417C4.47773 2.13151 4.24445 2.90792 4.32633 3.81355H8.67773Z" fill="#404040"/>
</svg>
