<svg width="8" height="9" viewBox="0 0 8 9" fill="none" xmlns="http://www.w3.org/2000/svg">
<path d="M8 4.23638C7.95165 5.57057 7.42543 6.76736 6.29378 7.67644C5.09012 8.64182 3.27228 8.74668 1.99969 7.88305C0.431841 6.81849 -0.179763 5.30043 0.0450231 3.44094C0.181335 2.3268 0.717324 1.41978 1.62573 0.755016C2.50019 0.118142 3.48729 -0.0993188 4.54796 0.0406592C5.69555 0.192001 6.61579 0.744162 7.27832 1.70335C7.78396 2.43526 7.99537 3.25705 8 4.23638ZM1.19725 4.01738C1.20805 4.92336 1.45444 5.65786 1.98426 6.29577C2.97291 7.49256 4.7424 7.58709 5.82878 6.48017C6.6163 5.67853 6.91413 4.70126 6.74438 3.59848C6.42135 1.49468 4.23675 0.675472 2.60409 1.56958C1.6211 2.10676 1.22708 3.01377 1.19725 4.01738Z" fill="#404040"/>
</svg>
