<svg width="7" height="7" viewBox="0 0 7 7" fill="none" xmlns="http://www.w3.org/2000/svg">
<path d="M7 2.83825C6.96363 2.96341 6.88185 3.05149 6.78935 3.13527C6.32525 3.5563 5.86417 3.98106 5.40034 4.40253C5.35917 4.43991 5.3475 4.47256 5.35999 4.52898C5.50476 5.1836 5.64625 5.83893 5.78965 6.49383C5.82711 6.66568 5.79212 6.8129 5.65517 6.91945C5.51588 7.02771 5.36699 7.02227 5.22057 6.93047C4.66974 6.58677 4.11836 6.24306 3.56931 5.89707C3.51524 5.86284 3.4797 5.86843 3.42947 5.89979C2.88166 6.24349 2.33298 6.58624 1.78342 6.92804C1.59762 7.04361 1.39507 7.01153 1.275 6.84899C1.19897 6.74616 1.18086 6.63016 1.20817 6.50528C1.35098 5.85043 1.49433 5.19553 1.63824 4.54058C1.65196 4.47772 1.64208 4.43948 1.59405 4.39594C1.10918 3.9561 0.625818 3.51463 0.143966 3.07154C0.019089 2.95697 -0.0311339 2.81576 0.0195031 2.64921C0.068905 2.48681 0.181978 2.39473 0.345965 2.37854C0.7313 2.34035 1.11673 2.30345 1.50225 2.26784C1.76984 2.24235 2.03743 2.21672 2.30516 2.19309C2.34633 2.18936 2.36706 2.17046 2.38352 2.13022C2.63602 1.50969 2.89127 0.890592 3.14349 0.270063C3.20689 0.114251 3.31022 0.0161516 3.47407 0.00154423C3.64341 -0.013636 3.78078 0.0837457 3.85515 0.265336C4.08762 0.832734 4.32708 1.3967 4.54746 1.96953C4.61086 2.13437 4.6884 2.20025 4.86062 2.21299C5.43533 2.25366 6.00825 2.31968 6.58241 2.36766C6.79512 2.38542 6.93921 2.47793 7 2.69704V2.83825Z" fill="#404040"/>
</svg>
