<svg width="18" height="18" viewBox="0 0 18 18" fill="none" xmlns="http://www.w3.org/2000/svg">
<path d="M8.85987 18C8.55677 17.8594 8.45591 17.6195 8.46812 17.2921C8.4867 16.8144 8.4729 16.3331 8.4729 15.8783C4.81876 15.2908 2.71407 13.1909 2.12009 9.52697H1.6312C1.26812 9.52697 0.904516 9.53015 0.541437 9.52697C0.470841 9.52838 0.400671 9.5157 0.335039 9.48967C0.269407 9.46363 0.209627 9.42476 0.159206 9.37534C0.108785 9.32592 0.0687363 9.26694 0.0413988 9.20185C0.0140613 9.13677 -1.41129e-05 9.06687 1.06182e-08 8.99628C1.06182e-08 8.7028 0.234092 8.47461 0.545681 8.47249C1.0765 8.46878 1.61103 8.47249 2.12009 8.47249C2.70398 4.82027 4.80708 2.71661 8.4729 2.12011V1.96886C8.4729 1.50026 8.4729 1.03166 8.4729 0.562529C8.4729 0.236684 8.69691 0.00106496 8.99788 3.57952e-06C9.29885 -0.0010578 9.52445 0.234028 9.52604 0.559342C9.52869 1.08632 9.52604 1.6133 9.52604 2.11958C13.177 2.70334 15.2796 4.80436 15.8783 8.46507C15.8964 8.46507 15.9526 8.47196 16.0089 8.47196C16.4367 8.47196 16.8651 8.48628 17.2919 8.46771C17.6194 8.45391 17.8599 8.55422 18 8.85937V9.14064C17.8599 9.44472 17.6194 9.54608 17.2924 9.53122C16.889 9.51317 16.4845 9.52697 16.0806 9.52697H15.8794C15.2801 13.1919 13.1797 15.2935 9.52604 15.8783C9.52604 16.3336 9.51277 16.8134 9.53082 17.2926C9.54356 17.6195 9.44271 17.8594 9.13961 18H8.85987ZM9.52763 3.2351C9.52763 3.38688 9.52763 3.53759 9.52763 3.68831C9.52339 4.01575 9.30416 4.25084 9.00372 4.25296C8.70327 4.25508 8.47768 4.01892 8.4729 3.69414C8.4729 3.54342 8.4729 3.39271 8.4729 3.24093C5.74238 3.40863 3.39404 5.7994 3.24329 8.47249C3.38926 8.47249 3.53418 8.47249 3.67963 8.47249C4.01829 8.47567 4.25662 8.69697 4.2529 9.00318C4.24919 9.30939 4.0151 9.52167 3.68653 9.52539C3.53631 9.52539 3.38662 9.52539 3.23533 9.52539C3.45881 12.4973 6.05397 14.6545 8.4729 14.7469C8.4729 14.6009 8.4729 14.4555 8.4729 14.3096C8.47661 13.9827 8.69584 13.747 8.99682 13.7449C9.29779 13.7428 9.52232 13.9784 9.52763 14.3032C9.52763 14.4539 9.52763 14.6052 9.52763 14.7569C12.2311 14.5945 14.6038 12.2224 14.7572 9.52539C14.6113 9.52539 14.4664 9.52539 14.3209 9.52539C13.9833 9.5222 13.7444 9.29878 13.7476 8.99204C13.7508 8.6853 13.987 8.47461 14.3151 8.4709C14.4648 8.4709 14.6145 8.4709 14.7657 8.4709C14.5587 5.70175 12.2231 3.42774 9.52763 3.2351Z" fill="#404040"/>
</svg>
