<svg width="17" height="15" viewBox="0 0 17 15" fill="none" xmlns="http://www.w3.org/2000/svg">
<path d="M8.46172 1.4195C8.94347 1.11797 9.3782 0.774563 9.86501 0.553651C11.7622 -0.30958 13.5977 -0.204889 15.2471 1.16194C16.5362 2.22933 17.0533 3.69981 16.9957 5.38492C16.9451 6.90984 16.3557 8.19186 15.3068 9.26501C13.7549 10.8527 12.2232 12.4583 10.6763 14.0549C9.51014 15.2589 7.69385 15.3181 6.48721 14.2004C6.33555 14.0596 6.19401 13.9057 6.04944 13.756C4.50309 12.1531 2.9345 10.5722 1.41697 8.93992C-0.352307 7.03547 -0.481212 3.85843 1.12327 1.82416C2.20303 0.455237 3.65081 -0.0886671 5.33212 0.0442988C6.50389 0.135386 7.53462 0.606528 8.42937 1.39542C8.45211 1.41636 8.47739 1.43154 8.46172 1.4195ZM1.18898 5.14516C1.19117 6.3207 1.64049 7.44803 2.43961 8.28294L7.09685 13.099C7.95874 13.989 9.05518 13.989 9.92112 13.0933C11.4644 11.4966 13.0179 9.90994 14.548 8.29917C15.6222 7.16792 16.0241 5.80056 15.7198 4.23795C15.3963 2.5764 14.131 1.4195 12.4982 1.28706C11.1439 1.1766 9.99492 1.6535 9.038 2.64498C8.93993 2.74654 8.82568 2.85438 8.69931 2.90045C8.41723 3.00777 8.1938 2.88736 7.98705 2.66958C6.9088 1.52629 5.59802 1.0562 4.08049 1.35249C2.34508 1.69276 1.18898 3.24385 1.18898 5.14516Z" fill="#404040"/>
</svg>
