<svg width="62" height="78" viewBox="0 0 62 78" fill="none" xmlns="http://www.w3.org/2000/svg">
<path d="M58.2372 51.4221C54.2627 60.8416 48.5314 68.7625 40.6592 74.654C39.8129 75.2691 38.9361 75.8407 38.0322 76.3667C35.7659 77.351 33.3359 77.9 30.868 77.9851C29.0732 78.0656 27.2786 77.819 25.5714 77.2573C19.7291 74.3715 15.1491 69.7388 11.1234 64.4125C5.8131 57.567 2.21029 49.5456 0.615755 41.0178C-2.24996 24.8419 5.06791 9.33392 18.7995 2.80876C21.5373 1.50715 24.5991 1.09612 27.516 0.239795C27.8827 0.137036 28.2666 0.0770689 28.6504 0H33.3242C36.2497 0.762125 39.2945 1.14749 42.092 2.37202C52.8811 7.15029 59.4228 15.9447 61.5294 28.5754C62.8429 36.5478 61.2991 44.1605 58.2372 51.4221Z" fill="#C9C9C9"/>
</svg>
