<svg width="57" height="78" viewBox="0 0 57 78" fill="none" xmlns="http://www.w3.org/2000/svg">
<path d="M28.5025 78C22.4278 77.9978 16.5612 75.7526 11.997 71.6832C7.43282 67.6137 4.48258 61.9978 3.69663 55.883L0.206029 28.6476C-0.249328 25.0682 0.0521456 21.4313 1.09036 17.9794C2.12858 14.5276 3.87967 11.34 6.22694 8.6292C8.57421 5.9184 11.4637 3.74662 14.7028 2.25865C17.942 0.770679 21.4564 0.000688326 25.0118 9.99858e-07H31.9848C35.5422 -0.00101247 39.0589 0.768442 42.3 2.25698C45.5412 3.74551 48.4322 5.91885 50.78 8.63192C53.1278 11.345 54.8784 14.5353 55.9149 17.9899C56.9514 21.4445 57.25 25.0837 56.7906 28.6648L53.2999 55.9001C52.5138 62.0119 49.5642 67.6245 45.0014 71.691C40.4386 75.7574 34.5742 77.9999 28.5025 78Z" fill="#C9C9C9"/>
</svg>
