<svg width="57" height="78" viewBox="0 0 57 78" fill="none" xmlns="http://www.w3.org/2000/svg">
<path d="M47.6303 68.5345L32.4663 76.9055C31.149 77.6321 29.669 78.0088 28.1666 77.9998C26.6642 77.9909 25.1888 77.5965 23.8801 76.8541L9.27787 68.5431C8.12252 67.8867 7.12967 66.976 6.3737 65.8791C5.61774 64.7823 5.11822 63.5277 4.91248 62.2091L0.342868 33.1074C-0.293549 29.0173 -0.0419355 24.8371 1.08049 20.8541C2.20292 16.8711 4.16955 13.1798 6.84509 10.034C9.52064 6.88817 12.8417 4.36237 16.5799 2.63028C20.3182 0.898187 24.385 0.00087661 28.5009 1.02331e-08V1.02331e-08C32.6198 -0.000110686 36.6898 0.897871 40.4305 2.63205C44.1712 4.36624 47.4937 6.89542 50.1692 10.0454C52.8447 13.1954 54.8095 16.8913 55.9284 20.8785C57.0473 24.8657 57.2936 29.0495 56.6503 33.1417L52.1063 62.1407C51.8945 63.4792 51.3811 64.7513 50.6053 65.8595C49.8295 66.9678 48.8118 67.8828 47.6303 68.5345Z" fill="#C9C9C9"/>
</svg>
